<?xml version="1.0" encoding="UTF-8"?>
<svg width="8px" height="5px" viewBox="0 0 8 5" version="1.1" xmlns="http://www.w3.org/2000/svg" xmlns:xlink="http://www.w3.org/1999/xlink">
    <title></title>
    <g id="Web-Help-Overview" stroke="none" stroke-width="1" fill="none" fill-rule="evenodd">
        <g id="TOC" transform="translate(-198.000000, -238.000000)" fill="#343434">
            <g id="States" transform="translate(10.000000, -8.000000)">
                <g id="Virtual-TOC" transform="translate(176.000000, 111.000000)">
                    <path d="M19.7968843,138.898442 C19.7968843,138.960942 19.7656343,139.031255 19.7187592,139.07813 L19.3281337,139.468755 C19.2812587,139.51563 19.2187586,139.54688 19.148446,139.54688 C19.0859459,139.54688 19.0156334,139.51563 18.9687583,139.468755 L15.8984421,136.398439 L12.828126,139.468755 C12.7812509,139.51563 12.7109383,139.54688 12.6484383,139.54688 C12.5859382,139.54688 12.5156256,139.51563 12.4687506,139.468755 L12.0781251,139.07813 C12.03125,139.031255 12,138.960942 12,138.898442 C12,138.835942 12.03125,138.765629 12.0781251,138.718754 L15.7187544,135.078125 C15.7656295,135.03125 15.8359421,135 15.8984421,135 C15.9609422,135 16.0312548,135.03125 16.0781299,135.078125 L19.7187592,138.718754 C19.7656343,138.765629 19.7968843,138.835942 19.7968843,138.898442 Z" id="" transform="translate(15.898442, 137.273440) scale(1, -1) translate(-15.898442, -137.273440) "></path>
                </g>
            </g>
        </g>
    </g>
</svg>